<?xml version="1.0" standalone="no"?>
<!DOCTYPE svg PUBLIC "-//W3C//DTD SVG 20010904//EN"
 "http://www.w3.org/TR/2001/REC-SVG-20010904/DTD/svg10.dtd">
<svg version="1.0" xmlns="http://www.w3.org/2000/svg"
 width="512.000000pt" height="512.000000pt" viewBox="0 0 512.000000 512.000000"
 preserveAspectRatio="xMidYMid meet">

<g transform="translate(0.000000,512.000000) scale(0.100000,-0.100000)"
fill="#000000" stroke="none">
<path d="M1734 4942 c-113 -47 -168 -146 -149 -268 5 -37 45 -104 216 -361
116 -173 209 -316 207 -317 -10 -8 -996 -296 -1011 -296 -11 0 -60 40 -110 88
-133 128 -129 127 -328 127 l-166 0 -49 -30 c-68 -43 -107 -108 -112 -191 -7
-108 10 -132 305 -425 225 -223 264 -258 307 -273 27 -9 64 -16 82 -16 17 0
292 76 610 169 318 94 579 169 580 168 2 -1 -19 -154 -45 -339 -53 -373 -54
-400 -3 -473 55 -78 118 -105 251 -105 110 0 154 14 213 70 48 45 49 47 259
590 117 300 213 546 214 548 1 1 211 63 466 138 680 198 680 198 721 238 111
108 96 261 -38 369 -121 99 -256 142 -414 134 -79 -4 -131 -16 -315 -70 -121
-37 -279 -84 -351 -105 l-131 -39 -436 326 c-239 180 -448 333 -463 341 -19 9
-72 15 -149 17 -97 2 -128 0 -161 -15z m249 -153 c11 -7 189 -138 395 -292
l374 -281 -279 -83 c-153 -45 -284 -83 -290 -83 -7 0 -110 145 -228 322 -152
228 -215 331 -215 351 0 16 10 38 25 52 22 23 32 25 110 25 48 0 96 -5 108
-11z m1916 -478 c66 -20 143 -66 181 -106 27 -29 31 -78 8 -101 -14 -14 -997
-308 -1005 -300 -2 1 4 20 13 41 8 21 12 41 7 45 -9 9 -135 61 -138 57 -1 -1
-120 -306 -264 -677 -169 -436 -269 -681 -282 -692 -16 -14 -40 -18 -100 -18
-67 0 -82 3 -105 23 -22 19 -27 32 -26 62 1 34 116 857 128 916 5 26 3 26 -71
38 -42 7 -78 11 -81 9 -2 -2 -7 -29 -11 -59 l-8 -54 -600 -177 c-330 -97 -611
-177 -625 -177 -19 -1 -80 54 -277 251 -240 239 -253 254 -253 290 0 28 6 42
26 57 24 19 40 21 146 21 l120 0 91 -88 c105 -101 138 -122 211 -129 54 -5
-12 -24 1906 547 850 253 797 239 877 240 43 0 95 -7 132 -19z"/>
<path d="M3405 4818 c-33 -11 -62 -22 -63 -24 -2 -1 7 -34 19 -73 16 -49 28
-71 39 -71 31 0 140 42 140 54 0 7 -9 40 -21 74 -24 70 -24 71 -114 40z"/>
<path d="M4525 4738 c-33 -11 -62 -22 -63 -24 -2 -1 7 -34 19 -73 16 -49 28
-71 39 -71 31 0 140 42 140 54 0 7 -9 40 -21 74 -24 70 -24 71 -114 40z"/>
<path d="M1047 4545 c-142 -45 -260 -85 -263 -88 -7 -7 38 -147 46 -147 12 0
541 168 547 174 3 2 -4 37 -16 75 -16 53 -26 71 -39 70 -9 0 -133 -38 -275
-84z"/>
<path d="M495 4372 c-60 -20 -112 -38 -114 -39 -9 -6 43 -153 53 -150 6 3 59
19 119 37 59 18 107 38 107 43 0 18 -44 147 -49 146 -4 0 -55 -17 -116 -37z"/>
<path d="M4610 3968 c-36 -11 -67 -22 -69 -23 -3 -3 36 -131 45 -147 7 -11
154 43 154 56 0 28 -43 136 -53 135 -7 0 -41 -9 -77 -21z"/>
<path d="M3800 3578 c-157 -49 -288 -93 -293 -97 -6 -6 27 -138 38 -149 3 -3
606 185 612 191 8 9 -45 142 -58 144 -8 1 -142 -39 -299 -89z"/>
<path d="M3215 3393 c-60 -19 -111 -36 -113 -38 -2 -2 6 -35 18 -74 15 -48 27
-71 37 -71 21 0 206 59 216 69 9 9 -31 152 -41 150 -4 0 -56 -17 -117 -36z"/>
<path d="M4414 3235 c-7 -19 -21 -51 -29 -72 -8 -20 -14 -37 -13 -38 2 -1 44
-18 93 -38 54 -21 84 -38 75 -41 -8 -3 -370 -114 -805 -247 -434 -132 -791
-242 -793 -244 -2 -2 6 -36 18 -75 21 -69 23 -72 48 -67 15 3 391 116 836 252
444 135 810 244 812 242 2 -2 -17 -54 -42 -117 -25 -62 -42 -116 -37 -121 9
-8 135 -60 138 -56 9 12 187 469 184 472 -5 4 -458 185 -465 185 -3 0 -12 -16
-20 -35z"/>
<path d="M1248 2856 c-295 -94 -540 -174 -544 -178 -5 -5 31 -134 41 -146 3
-4 1104 344 1111 351 3 3 -4 37 -16 76 -16 53 -25 71 -38 70 -9 -1 -259 -78
-554 -173z"/>
<path d="M415 2593 c-60 -19 -112 -37 -114 -38 -2 -2 6 -36 18 -74 16 -52 26
-71 39 -71 21 0 204 60 215 70 9 8 -32 151 -42 149 -4 0 -55 -16 -116 -36z"/>
<path d="M720 2227 c-49 -16 -133 -102 -148 -153 -9 -30 -12 -186 -12 -578 l0
-536 -200 0 -200 0 0 -216 c0 -141 4 -231 12 -258 16 -55 99 -138 154 -154 29
-8 154 -12 428 -12 344 0 386 -2 386 -16 0 -27 101 -119 146 -132 95 -28 168
-8 242 65 28 28 52 59 52 67 0 14 94 16 940 16 846 0 940 -2 940 -16 0 -27
101 -119 146 -132 95 -28 168 -8 242 65 28 28 52 59 52 67 0 14 46 16 426 16
306 0 438 3 468 12 55 16 138 99 154 154 8 27 12 117 12 258 l0 216 -200 0
-200 0 0 536 c0 386 -3 548 -12 576 -6 22 -31 62 -55 88 -78 87 96 80 -1937
79 -1283 -1 -1811 -4 -1836 -12z m160 -267 l0 -120 80 0 80 0 0 120 0 120 240
0 240 0 0 -240 0 -240 -400 0 -400 0 0 215 c0 216 0 216 25 240 20 21 34 25
80 25 l55 0 0 -120z m960 0 l0 -120 80 0 80 0 0 120 0 120 240 0 240 0 0 -240
0 -240 -400 0 -400 0 0 240 0 240 80 0 80 0 0 -120z m960 0 l0 -120 80 0 80 0
0 120 0 120 240 0 240 0 0 -240 0 -240 -400 0 -400 0 0 240 0 240 80 0 80 0 0
-120z m960 0 l0 -120 80 0 80 0 0 120 0 120 215 0 c288 0 265 23 265 -265 l0
-215 -400 0 -400 0 0 240 0 240 80 0 80 0 0 -120z m-2880 -640 l0 -120 80 0
80 0 0 120 0 120 240 0 240 0 0 -240 0 -240 -400 0 -400 0 0 240 0 240 80 0
80 0 0 -120z m960 0 l0 -120 80 0 80 0 0 120 0 120 240 0 240 0 0 -240 0 -240
-400 0 -400 0 0 240 0 240 80 0 80 0 0 -120z m960 0 l0 -120 80 0 80 0 0 120
0 120 240 0 240 0 0 -240 0 -240 -400 0 -400 0 0 240 0 240 80 0 80 0 0 -120z
m960 0 l0 -120 80 0 80 0 0 120 0 120 240 0 240 0 0 -240 0 -240 -400 0 -400
0 0 240 0 240 80 0 80 0 0 -120z m1040 -655 c0 -131 -1 -137 -25 -160 l-24
-25 -426 0 c-379 0 -425 2 -425 16 0 27 -101 119 -146 132 -95 28 -168 8 -241
-65 -29 -28 -53 -59 -53 -67 0 -14 -94 -16 -940 -16 -846 0 -940 2 -940 16 0
8 -24 39 -52 67 -74 73 -147 93 -242 65 -45 -13 -146 -105 -146 -132 0 -14
-42 -16 -385 -16 l-386 0 -24 25 c-24 23 -25 29 -25 160 l0 135 2240 0 2240 0
0 -135z m-3385 -210 c50 -49 15 -135 -55 -135 -41 0 -80 39 -80 80 0 41 39 80
80 80 19 0 40 -9 55 -25z m2320 0 c50 -49 15 -135 -55 -135 -41 0 -80 39 -80
80 0 41 39 80 80 80 19 0 40 -9 55 -25z"/>
</g>
</svg>
